<?xml version="1.0" encoding="UTF-8" standalone="no"?>
<svg width="256" height="256" viewBox="0 -7 432 432" role="img" aria-label="tebunko" version="1.1" xmlns="http://www.w3.org/2000/svg" xmlns:xlink="http://www.w3.org/1999/xlink" xml:space="preserve" xmlns:serif="http://www.serif.com/" style="fill-rule:evenodd;clip-rule:evenodd;stroke-linejoin:round;stroke-miterlimit:2;">
<!--
  tebunko のアイコンの元データ（リポジトリの管理者が作成）。
  README・設計書サイトのロゴと favicon に使い、画面のアイコン（scripts/tebunko/tebunko.ico）は
  ここから tools/new_icon.ps1 で作る。図柄を変えたら、tools/new_icon.ps1 で .ico も作り直す。
-->
    <g transform="matrix(1.15382,0,0,1.15382,-29.5103,-15.7071)">
        <path d="M212.82,20.59C220,20.59 226.787,22.417 233.18,26.07C272.187,48.323 311.703,70.82 351.73,93.56C358.85,97.607 363.607,100.883 366,103.39C372.74,110.45 376.153,119.25 376.24,129.79C376.3,136.49 376.307,180.31 376.26,261.25C376.253,271.13 373.233,279.237 367.2,285.57C364.66,288.23 359.85,291.563 352.77,295.57C310.983,319.197 270.52,342.133 231.38,364.38C226.06,367.4 219.847,368.91 212.74,368.91C205.627,368.91 199.413,367.397 194.1,364.37C154.967,342.103 114.513,319.147 72.74,295.5C65.66,291.493 60.85,288.157 58.31,285.49C52.283,279.157 49.27,271.05 49.27,261.17C49.263,180.23 49.29,136.41 49.35,129.71C49.443,119.17 52.86,110.37 59.6,103.31C62,100.81 66.76,97.537 73.88,93.49C113.92,70.77 153.45,48.293 192.47,26.06C198.863,22.413 205.647,20.59 212.82,20.59Z" style="fill:rgb(251,254,255);fill-rule:nonzero;"/>
        <path d="M206.41,33.89L206.39,88.43C205.53,88.75 204.607,89.093 203.62,89.46C202.7,89.807 201.813,90.223 200.96,90.71C172.887,106.69 144.71,122.687 116.43,138.7C102.837,131 89.22,123.247 75.58,115.44C73.46,114.227 72.327,113.2 72.18,112.36C71.72,109.76 72.72,108.59 75.16,107.2C119.873,81.747 161.69,57.967 200.61,35.86C201.977,35.08 203.91,34.423 206.41,33.89Z" style="fill:rgb(142,200,255);fill-rule:nonzero;"/>
        <path d="M219.13,33.89C221.703,34.463 223.79,35.203 225.39,36.11C265.477,58.883 307.51,82.773 351.49,107.78C353.28,108.8 354.05,111.22 353.07,113.01C352.73,113.623 351.783,114.373 350.23,115.26C336.477,123.147 322.75,130.97 309.05,138.73C280.61,122.623 252.273,106.517 224.04,90.41C222.9,89.763 221.143,89.08 218.77,88.36C218.89,88.347 218.997,88.32 219.09,88.28C219.267,88.201 219.381,88.024 219.38,87.83L219.13,33.89Z" style="fill:rgb(142,200,255);fill-rule:nonzero;"/>
        <path d="M206.32,293.75L206.35,312.83C204.91,312.883 203.543,312.533 202.25,311.78C157.77,286.053 123.543,266.26 99.57,252.4C95.05,249.79 90.36,247.75 88.68,244.57C85.73,238.96 87.99,232.28 93.7,229.49C94,229.343 94.36,229.378 94.63,229.58C98.21,232.333 100.333,233.9 101,234.28C133.44,252.9 164.76,271.07 194.96,288.79C197.653,290.37 201.44,292.023 206.32,293.75Z" style="fill:rgb(255,179,106);fill-rule:nonzero;"/>
        <path d="M332.43,230.01L334.61,231.26C338.157,234.927 339.023,239.073 337.21,243.7C336.557,245.373 335.35,246.723 333.59,247.75C295.73,269.777 257.627,291.863 219.28,314.01L219.16,294.04C223.433,293.093 227.653,291.44 231.82,289.08C248.88,279.387 261.67,271.987 270.19,266.88C290.98,254.41 301.68,248.44 326.79,234.04C329.137,232.693 331.017,231.35 332.43,230.01Z" style="fill:rgb(255,179,106);fill-rule:nonzero;"/>
        <path d="M219.07,277.16L219.13,252.26C224.637,250.22 229.44,247.993 233.54,245.58C262.227,228.7 290.217,212.593 317.51,197.26C319.357,196.22 322.463,194.273 326.83,191.42C327.128,191.227 327.505,191.205 327.82,191.36C332.94,193.93 338.11,196.69 337.95,203.46C337.85,207.8 335.947,211.003 332.24,213.07C326.593,216.21 292.727,235.573 230.64,271.16C225.167,274.3 221.31,276.3 219.07,277.16Z" style="fill:rgb(127,209,153);fill-rule:nonzero;"/>
        <path d="M206.34,254.62L206.35,276.74C204.637,276.487 203.063,275.947 201.63,275.12C166.99,255.253 131.823,235.06 96.13,214.54C92.117,212.233 89.693,210.337 88.86,208.85C85.3,202.51 88.49,195.4 95.16,192.82C95.452,192.706 95.781,192.728 96.06,192.88C104.027,197.247 111.413,201.457 118.22,205.51C120.493,206.863 146.517,221.767 196.29,250.22C199.11,251.833 202.46,253.3 206.34,254.62Z" style="fill:rgb(127,209,153);fill-rule:nonzero;"/>
        <path d="M206.28,246.29L206.34,254.62C202.46,253.3 199.11,251.833 196.29,250.22C146.517,221.767 120.493,206.863 118.22,205.51C111.413,201.457 104.027,197.247 96.06,192.88C95.781,192.728 95.452,192.706 95.16,192.82C88.49,195.4 85.3,202.51 88.86,208.85C89.693,210.337 92.117,212.233 96.13,214.54C131.823,235.06 166.99,255.253 201.63,275.12C203.063,275.947 204.637,276.487 206.35,276.74L206.3,282.4C203.493,281.633 200.853,280.537 198.38,279.11C164.733,259.643 131.063,240.31 97.37,221.11C92.737,218.93 88.523,216.213 84.73,212.96C84.083,211.167 83.517,209.313 83.03,207.4C81.303,200.573 82.877,195.19 87.75,191.25C89.137,190.13 92.413,188.227 97.58,185.54C98.733,185.793 100.433,186.56 102.68,187.84C134.453,205.967 166.22,224.107 197.98,242.26C200.147,243.5 202.913,244.843 206.28,246.29Z" style="fill:rgb(93,154,116);fill-rule:nonzero;"/>
        <path d="M327.96,185.45C336.72,190.12 343.85,193.87 343.02,204.47C342.28,214.05 336.08,216.69 328.79,220.8C328.563,220.927 328.34,221.18 328.12,221.56C327.913,221.42 327.61,221.463 327.21,221.69C293.703,240.837 260.217,260.023 226.75,279.25C223.957,280.857 221.417,281.783 219.13,282.03L219.07,277.16C221.31,276.3 225.167,274.3 230.64,271.16C292.727,235.573 326.593,216.21 332.24,213.07C335.947,211.003 337.85,207.8 337.95,203.46C338.11,196.69 332.94,193.93 327.82,191.36C327.505,191.205 327.128,191.227 326.83,191.42C322.463,194.273 319.357,196.22 317.51,197.26C290.217,212.593 262.227,228.7 233.54,245.58C229.44,247.993 224.637,250.22 219.13,252.26L219.17,245.68C221.59,245.193 224.213,244.143 227.04,242.53C260.287,223.503 293.57,204.54 326.89,185.64C327.223,185.447 327.58,185.383 327.96,185.45Z" style="fill:rgb(93,154,116);fill-rule:nonzero;"/>
        <path d="M363.5,265.86L343.97,254.67L338.06,251.05C343.713,245.27 344.757,238.69 341.19,231.31C340.61,230.117 339.703,228.94 338.47,227.78L328.12,221.56C328.34,221.18 328.563,220.927 328.79,220.8C336.08,216.69 342.28,214.05 343.02,204.47C343.85,193.87 336.72,190.12 327.96,185.45L328.13,185.15C328.228,184.961 328.381,184.804 328.57,184.7C335.04,181.1 341.34,178.42 342.75,170.47C344.063,163.083 341.433,157.497 334.86,153.71C330.533,151.217 326.19,148.58 321.83,145.8C333.89,138.9 345.717,132.157 357.31,125.57C360.05,124.017 362.043,124.673 363.29,127.54C363.409,127.824 363.47,128.13 363.47,128.44L363.5,265.86Z" style="fill:rgb(51,162,255);fill-rule:nonzero;"/>
        <path d="M103.7,145.82C99.94,148.027 96.3,150.177 92.78,152.27C89.113,154.45 86.7,156.25 85.54,157.67C83.647,159.983 82.573,162.757 82.32,165.99C81.5,176.52 88.78,180.18 96.87,184.63C97.094,184.755 97.288,184.926 97.44,185.13C97.62,185.377 97.667,185.513 97.58,185.54C92.413,188.227 89.137,190.13 87.75,191.25C82.877,195.19 81.303,200.573 83.03,207.4C83.517,209.313 84.083,211.167 84.73,212.96C84.783,214.913 85.127,216.59 85.76,217.99C87.227,221.283 88.313,224.047 89.02,226.28C80.66,232.12 80,243.52 87.05,250.68C86.663,251.567 85.587,252.397 83.82,253.17L62.09,265.68C61.977,220.373 61.963,174.8 62.05,128.96C62.06,126.85 63.41,125.09 65.57,124.86C66.27,124.787 67.397,125.187 68.95,126.06C80.297,132.42 91.88,139.007 103.7,145.82Z" style="fill:rgb(51,162,255);fill-rule:nonzero;"/>
        <path d="M94.28,261.96C100.293,264.967 104.63,267.217 107.29,268.71C132.803,283.003 158.17,297.553 183.39,312.36C192.1,317.48 198.41,321.51 206.34,323.9L206.31,349.39C206.31,349.648 206.27,349.905 206.19,350.15C205.283,352.917 203.363,354.01 200.43,353.43C200.139,353.37 199.862,353.266 199.61,353.12C157.017,328.86 114.397,304.653 71.75,280.5C70.257,279.653 68.84,278.497 67.5,277.03L91.75,263.22L94.28,261.96Z" style="fill:rgb(51,162,255);fill-rule:nonzero;"/>
        <path d="M336.09,264.53L357.91,277.11C356.73,278.457 355.763,279.343 355.01,279.77C311.89,304.217 268.787,328.693 225.7,353.2C225.58,353.266 225.456,353.317 225.33,353.35C221.917,354.143 219.843,352.85 219.11,349.47L219.13,324.01C219.13,323.643 219.234,323.321 219.42,323.11C219.507,323.017 219.543,322.89 219.53,322.73C219.529,322.719 219.529,322.709 219.529,322.698C219.529,322.501 219.691,322.338 219.889,322.338C219.919,322.338 219.95,322.342 219.98,322.35C221.793,322.843 223.243,322.85 224.33,322.37C227.263,321.09 232.287,318.44 239.4,314.42C266.8,298.907 293.883,283.477 320.65,268.13C323.94,266.25 328.04,264.33 331.68,262.27L336.09,264.53Z" style="fill:rgb(51,162,255);fill-rule:nonzero;"/>
        <path d="M219.13,33.89L219.38,87.83C219.381,88.024 219.267,88.201 219.09,88.28C218.997,88.32 218.89,88.347 218.77,88.36C214.777,87.327 210.65,87.35 206.39,88.43L206.41,33.89C210.63,32.823 214.87,32.823 219.13,33.89Z" style="fill:rgb(179,220,255);fill-rule:nonzero;"/>
        <path d="M303.88,141.69C279.94,155.337 256.09,168.9 232.33,182.38C224.563,186.787 219.527,189.11 217.22,189.35C213.447,189.743 209.693,189.543 205.96,188.75C204.5,188.437 201.163,186.803 195.95,183.85C171.403,169.963 146.663,155.887 121.73,141.62C149.277,125.987 176.623,110.463 203.77,95.05C207.563,92.903 211.5,92.18 215.58,92.88C217.907,93.287 221.623,94.94 226.73,97.84C252.223,112.313 277.94,126.93 303.88,141.69Z" style="fill:rgb(179,220,255);fill-rule:nonzero;"/>
        <path d="M83.82,253.17C84.607,256.137 86.103,258.557 88.31,260.43C89.39,261.343 90.537,262.273 91.75,263.22L67.5,277.03C64.427,273.777 62.623,269.993 62.09,265.68L83.82,253.17Z" style="fill:rgb(179,220,255);fill-rule:nonzero;"/>
        <path d="M343.97,254.67L363.5,265.86C362.887,270.153 361.023,273.903 357.91,277.11L336.09,264.53C339.857,261.883 342.483,258.597 343.97,254.67Z" style="fill:rgb(179,220,255);fill-rule:nonzero;"/>
        <path d="M109.06,148.84C104.74,151.293 100.517,153.723 96.39,156.13C93.77,157.66 90.29,159.35 89.07,161.66C87.03,165.54 86.94,169.15 88.8,172.49C89.667,174.057 92.16,176.02 96.28,178.38C132.64,199.173 169.273,220.043 206.18,240.99L206.28,246.29C202.913,244.843 200.147,243.5 197.98,242.26C166.22,224.107 134.453,205.967 102.68,187.84C100.433,186.56 98.733,185.793 97.58,185.54C97.667,185.513 97.62,185.377 97.44,185.13C97.288,184.926 97.094,184.755 96.87,184.63C88.78,180.18 81.5,176.52 82.32,165.99C82.573,162.757 83.647,159.983 85.54,157.67C86.7,156.25 89.113,154.45 92.78,152.27C96.3,150.177 99.94,148.027 103.7,145.82L109.06,148.84Z" style="fill:rgb(70,121,176);fill-rule:nonzero;"/>
        <path d="M321.83,145.8C326.19,148.58 330.533,151.217 334.86,153.71C341.433,157.497 344.063,163.083 342.75,170.47C341.34,178.42 335.04,181.1 328.57,184.7C328.381,184.804 328.228,184.961 328.13,185.15L327.96,185.45C327.58,185.383 327.223,185.447 326.89,185.64C293.57,204.54 260.287,223.503 227.04,242.53C224.213,244.143 221.59,245.193 219.17,245.68L219.25,241.1C257.263,219.447 295.073,197.89 332.68,176.43C335.947,174.563 337.703,171.823 337.95,168.21C338.277,163.477 336.303,159.953 332.03,157.64C326.897,154.86 321.743,151.907 316.57,148.78L321.83,145.8Z" style="fill:rgb(70,121,176);fill-rule:nonzero;"/>
        <path d="M97.37,221.11L93.26,223.89L89.02,226.28C88.313,224.047 87.227,221.283 85.76,217.99C85.127,216.59 84.783,214.913 84.73,212.96C88.523,216.213 92.737,218.93 97.37,221.11Z" style="fill:rgb(70,121,176);fill-rule:nonzero;"/>
        <path d="M206.28,318.67L206.34,323.9C198.41,321.51 192.1,317.48 183.39,312.36C158.17,297.553 132.803,283.003 107.29,268.71C104.63,267.217 100.293,264.967 94.28,261.96L99.76,258.43C133.033,277.643 166.367,296.92 199.76,316.26C201.553,317.293 203.727,318.097 206.28,318.67Z" style="fill:rgb(70,121,176);fill-rule:nonzero;"/>
        <path d="M325.53,258.6L331.68,262.27C328.04,264.33 323.94,266.25 320.65,268.13C293.883,283.477 266.8,298.907 239.4,314.42C232.287,318.44 227.263,321.09 224.33,322.37C223.243,322.85 221.793,322.843 219.98,322.35C219.95,322.342 219.919,322.338 219.889,322.338C219.691,322.338 219.529,322.501 219.529,322.698C219.529,322.709 219.529,322.719 219.53,322.73C219.543,322.89 219.507,323.017 219.42,323.11C219.234,323.321 219.13,323.643 219.13,324.01L219.11,349.47L219.09,318.74C221.743,318.167 224.03,317.32 225.95,316.2C259.11,296.987 292.303,277.787 325.53,258.6Z" style="fill:rgb(70,121,176);fill-rule:nonzero;"/>
        <path d="M93.26,223.89C95.207,225.33 97.36,226.24 99.72,226.62C100.096,226.679 100.454,226.819 100.77,227.03C103.49,228.817 106.257,230.527 109.07,232.16C148.837,255.28 179.2,272.837 200.16,284.83C201.44,285.563 203.49,286.52 206.31,287.7L206.32,293.75C201.44,292.023 197.653,290.37 194.96,288.79C164.76,271.07 133.44,252.9 101,234.28C100.333,233.9 98.21,232.333 94.63,229.58C94.36,229.378 94,229.343 93.7,229.49C87.99,232.28 85.73,238.96 88.68,244.57C90.36,247.75 95.05,249.79 99.57,252.4C123.543,266.26 157.77,286.053 202.25,311.78C203.543,312.533 204.91,312.883 206.35,312.83L206.28,318.67C203.727,318.097 201.553,317.293 199.76,316.26C166.367,296.92 133.033,277.643 99.76,258.43L87.05,250.68C80,243.52 80.66,232.12 89.02,226.28L93.26,223.89Z" style="fill:rgb(221,153,85);fill-rule:nonzero;"/>
        <path d="M332.43,230.01C331.017,231.35 329.137,232.693 326.79,234.04C301.68,248.44 290.98,254.41 270.19,266.88C261.67,271.987 248.88,279.387 231.82,289.08C227.653,291.44 223.433,293.093 219.16,294.04L219.14,286.6C221.587,286.76 224.497,285.85 227.87,283.87C243.75,274.517 274.2,256.973 319.22,231.24C320.367,230.587 322.53,229.04 325.71,226.6C325.974,226.396 326.341,226.376 326.63,226.55L332.43,230.01Z" style="fill:rgb(221,153,85);fill-rule:nonzero;"/>
        <path d="M338.47,227.78C339.703,228.94 340.61,230.117 341.19,231.31C344.757,238.69 343.713,245.27 338.06,251.05L325.53,258.6C292.303,277.787 259.11,296.987 225.95,316.2C224.03,317.32 221.743,318.167 219.09,318.74L219.28,314.01C257.627,291.863 295.73,269.777 333.59,247.75C335.35,246.723 336.557,245.373 337.21,243.7C339.023,239.073 338.157,234.927 334.61,231.26L338.47,227.78Z" style="fill:rgb(221,153,85);fill-rule:nonzero;"/>
        <path d="M206.3,282.4L206.31,287.7C203.49,286.52 201.44,285.563 200.16,284.83C179.2,272.837 148.837,255.28 109.07,232.16C106.257,230.527 103.49,228.817 100.77,227.03C100.454,226.819 100.096,226.679 99.72,226.62C97.36,226.24 95.207,225.33 93.26,223.89L97.37,221.11C131.063,240.31 164.733,259.643 198.38,279.11C200.853,280.537 203.493,281.633 206.3,282.4Z" style="fill:rgb(185,129,73);fill-rule:nonzero;"/>
        <path d="M328.12,221.56L338.47,227.78L334.61,231.26L332.43,230.01L326.63,226.55C326.341,226.376 325.974,226.396 325.71,226.6C322.53,229.04 320.367,230.587 319.22,231.24C274.2,256.973 243.75,274.517 227.87,283.87C224.497,285.85 221.587,286.76 219.14,286.6L219.13,282.03C221.417,281.783 223.957,280.857 226.75,279.25C260.217,260.023 293.703,240.837 327.21,221.69C327.61,221.463 327.913,221.42 328.12,221.56Z" style="fill:rgb(185,129,73);fill-rule:nonzero;"/>
        <path d="M316.57,148.78C321.743,151.907 326.897,154.86 332.03,157.64C336.303,159.953 338.277,163.477 337.95,168.21C337.703,171.823 335.947,174.563 332.68,176.43C295.073,197.89 257.263,219.447 219.25,241.1C218.937,230.067 218.9,222.61 219.14,218.73C219.533,212.29 221.743,206.81 225.77,202.29C227.95,199.83 232.807,196.443 240.34,192.13C265.793,177.57 291.203,163.12 316.57,148.78Z" style="fill:rgb(161,209,255);fill-rule:nonzero;"/>
        <path d="M206.18,240.99C169.273,220.043 132.64,199.173 96.28,178.38C92.16,176.02 89.667,174.057 88.8,172.49C86.94,169.15 87.03,165.54 89.07,161.66C90.29,159.35 93.77,157.66 96.39,156.13C100.517,153.723 104.74,151.293 109.06,148.84C134.907,163.467 160.747,178.147 186.58,192.88C193.187,196.647 197.567,199.737 199.72,202.15C203.72,206.63 205.933,211.993 206.36,218.24C206.633,222.26 206.573,229.843 206.18,240.99Z" style="fill:rgb(161,209,255);fill-rule:nonzero;"/>
        <path d="M218.77,88.36C221.143,89.08 222.9,89.763 224.04,90.41C252.273,106.517 280.61,122.623 309.05,138.73L303.88,141.69C277.94,126.93 252.223,112.313 226.73,97.84C221.623,94.94 217.907,93.287 215.58,92.88C211.5,92.18 207.563,92.903 203.77,95.05C176.623,110.463 149.277,125.987 121.73,141.62L116.43,138.7C144.71,122.687 172.887,106.69 200.96,90.71C201.813,90.223 202.7,89.807 203.62,89.46C204.607,89.093 205.53,88.75 206.39,88.43C210.65,87.35 214.777,87.327 218.77,88.36Z" style="fill:rgb(126,179,230);fill-rule:nonzero;"/>
        <path d="M99.76,258.43L94.28,261.96L91.75,263.22C90.537,262.273 89.39,261.343 88.31,260.43C86.103,258.557 84.607,256.137 83.82,253.17C85.587,252.397 86.663,251.567 87.05,250.68L99.76,258.43Z" style="fill:rgb(126,179,230);fill-rule:nonzero;"/>
        <path d="M338.06,251.05L343.97,254.67C342.483,258.597 339.857,261.883 336.09,264.53L331.68,262.27L325.53,258.6L338.06,251.05Z" style="fill:rgb(126,179,230);fill-rule:nonzero;"/>
    </g>
</svg>
